/* XPM */
static char * matrix_xpm[] = {
"64 64 2 1",
" 	c #4B0082",
".	c #4B0082",
"                                                                ",
"............................................................... ",
"............................................................... ",
"............................................................... ",
"............................................................... ",
"............................................................... ",
"............................................................... ",
"............................................................... ",
"............................................................... ",
"............................................................... ",
"............................................................... ",
"............................................................... ",
"............................................................... ",
"............................................................... ",
"............................................................... ",
"............................................................... ",
"............................................................... ",
"............................................................... ",
"............................................................... ",
"............................................................... ",
"............................................................... ",
"............................................................... ",
"............................................................... ",
"............................................................... ",
"............................................................... ",
"............................................................... ",
"............................................................... ",
"............................................................... ",
"............................................................... ",
"............................................................... ",
"............................................................... ",
"............................................................... ",
"............................................................... ",
"............................................................... ",
"............................................................... ",
"............................................................... ",
"............................................................... ",
"............................................................... ",
"............................................................... ",
"............................................................... ",
"............................................................... ",
"............................................................... ",
"............................................................... ",
"............................................................... ",
"............................................................... ",
"............................................................... ",
"............................................................... ",
"............................................................... ",
"............................................................... ",
"............................................................... ",
"............................................................... ",
"............................................................... ",
"............................................................... ",
"............................................................... ",
"............................................................... ",
"............................................................... ",
"............................................................... ",
"............................................................... ",
"............................................................... ",
"............................................................... ",
"............................................................... ",
"............................................................... ",
"............................................................... ",
"                                                                "};